<svg width="200" height="200" viewBox="0 0 200 200" fill="none" xmlns="http://www.w3.org/2000/svg">
<rect width="200" height="200" fill="#FDC400"/>
<g clip-path="url(#clip0_1111_33)">
<g clip-path="url(#clip1_1111_33)">
<path fill-rule="evenodd" clip-rule="evenodd" d="M179.884 99.6364C180.117 97.84 179.385 96.633 176.854 96.633H169.879C169.879 96.633 169.529 96.549 169.487 96.8314C169.445 97.1147 168.725 101.047 168.627 101.684C168.529 102.32 168.653 102.225 169.143 102.225H176.042C177.876 102.225 179.609 101.753 179.884 99.6364ZM169.739 92.9894C169.641 93.6259 169.824 93.7251 170.313 93.7251H177.121C178.956 93.7251 179.656 92.6645 179.852 91.4206C179.994 90.5215 179.291 89.3551 177.708 89.3551H170.733C170.733 89.3551 170.391 89.3504 170.341 89.5535C170.273 89.8311 169.837 92.3537 169.739 92.9894ZM181.616 94.8735C182.995 95.5894 185.623 97.0911 184.865 100.57C184.11 104.05 181.448 105.238 179.011 105.238C176.575 105.238 166.686 105.323 164.753 105.323C162.82 105.323 162.859 104.728 162.998 103.936C163.139 103.144 165.789 88.5202 166.041 87.1631C166.294 85.805 167.302 85.8333 168.506 85.8333C169.813 85.8333 179.992 85.8616 179.992 85.8616C182.644 85.8616 184.717 87.1064 184.717 90.4252C184.717 93.3105 181.89 94.4296 181.622 94.5458C181.353 94.662 181.37 94.7451 181.616 94.8735ZM142.875 103.993C142.707 105.082 143.351 105.294 144.108 105.294C144.863 105.294 158.508 105.35 159.629 105.294C160.75 105.237 160.834 104.983 160.945 104.389C160.992 104.139 161.115 103.636 161.335 102.362C161.338 102.343 161.484 101.626 160.85 101.626L148.636 101.623C148.287 101.623 148.444 101.286 148.447 101.267C148.726 99.6449 149.014 97.9543 149.058 97.6851C149.142 97.1751 149.255 97.1194 149.759 97.1194C150.263 97.1194 158.622 97.1477 159.406 97.1477C160.19 97.1477 160.359 96.9494 160.498 96.4404C160.638 95.9313 160.863 94.5175 160.919 93.8951C160.975 93.2717 160.806 93.1877 160.275 93.1877C159.742 93.1877 150.908 93.216 150.375 93.216C149.843 93.216 149.899 93.1027 149.955 92.537C150.011 91.9712 150.173 91.4339 150.314 90.5291C150.453 89.6234 150.734 89.7367 151.35 89.7367C151.966 89.7367 161.295 89.7084 162.415 89.7084C163.536 89.7084 163.591 89.425 163.731 88.8036C163.869 88.1766 163.981 87.5442 164.067 86.9081C164.18 86.144 163.928 86.0033 163.227 86.0033H147.148C146.307 86.0033 145.944 86.1166 145.803 86.8514C145.663 87.5871 143.067 102.747 142.875 103.993ZM127.02 105.153C127.483 105.153 128.457 105.153 129.874 105.172C131.29 105.191 131.785 105.323 131.208 105.681C129.017 107.041 126.247 108.933 121.166 110.677C110.677 114.28 98.3143 114.167 98.3143 114.167C107.362 113.864 111.39 112.62 116.108 110.753C120.825 108.886 123.241 106.623 124.246 105.888C125.251 105.153 124.93 105.153 127.02 105.153ZM139.616 86.0316C143.211 86.0033 138.25 86.0222 139.993 86.0269C142.359 86.0335 143.565 86.0052 143.487 86.5709C143.408 87.1376 142.744 91.0948 141.168 94.4041C139.59 97.7135 136.887 100.74 136.178 101.532C135.468 102.324 135.713 102.398 133.584 102.454C131.455 102.51 133.353 102.472 130.569 102.443C127.786 102.415 127.739 102.465 128.319 101.674C128.899 100.881 131.487 97.1619 132.495 94.2625C133.419 91.6029 134.175 87.9432 134.235 86.8599C134.291 85.8399 136.245 86.0581 139.616 86.0316ZM115.693 105.153C115.973 105.153 118.37 105.153 119.316 105.172C120.262 105.191 120.593 105.323 120.207 105.681C118.744 107.041 116.892 108.933 113.498 110.677C106.49 114.28 98.2217 114.167 98.2217 114.167C103.684 113.864 106.252 112.62 109.101 110.753C111.949 108.886 113.377 106.623 113.984 105.888C114.592 105.153 114.43 105.153 115.693 105.153ZM123.158 86.0316C125.329 86.0033 124.862 86.0222 126.022 86.0269C127.601 86.0335 128.405 86.0052 128.352 86.5709C128.3 87.1376 127.857 91.0948 126.806 94.4041C125.754 97.7135 123.952 100.74 123.479 101.532C123.006 102.324 123.169 102.398 121.75 102.454C120.33 102.51 119.54 102.472 117.859 102.443C116.178 102.415 116.149 102.465 116.5 101.674C116.85 100.881 118.362 96.9777 119.021 94.2625C119.654 91.6511 120.036 87.9432 120.071 86.8599C120.105 85.8399 121.124 86.0581 123.158 86.0316ZM105.553 105.153C105.665 105.153 108.821 105.153 109.326 105.172C109.83 105.191 110.054 105.323 109.849 105.681C109.068 107.041 108.035 108.933 106.225 110.677C102.49 114.28 98.0829 114.167 98.0829 114.167C100.267 113.864 101.294 112.62 102.434 110.753C103.573 108.886 104.189 106.623 104.431 105.888C104.674 105.153 105.048 105.153 105.553 105.153ZM108.195 86.0316C107.381 86.0581 106.794 85.975 106.822 86.9931C106.851 88.0679 106.71 91.6889 106.402 94.2625C106.094 96.8361 105.533 100.881 105.394 101.674C105.253 102.465 105.534 102.415 106.206 102.443C106.879 102.472 109.764 102.465 110.52 102.409C111.276 102.353 111.333 102.324 111.585 101.532C111.837 100.74 112.761 97.7135 113.322 94.4041C113.882 91.0948 114.105 87.2481 114.134 86.6824C114.162 86.1157 113.741 86.1157 112.901 86.059C112.061 86.0024 109.063 86.0033 108.195 86.0316ZM82.339 85.975C81.863 85.975 81.4701 86.06 81.3587 86.57C81.2244 87.1989 81.1028 87.8306 80.9941 88.4645C80.826 89.3986 80.9658 89.596 81.6949 89.596H89.2023C89.7624 89.596 89.8748 89.5393 89.7907 90.106C89.7057 90.6707 87.4929 103.202 87.3257 104.22C87.1576 105.239 87.5495 105.301 88.1936 105.301C89.0059 105.301 90.2667 105.323 91.1913 105.295C92.115 105.266 92.1716 104.984 92.3114 104.333C92.4512 103.682 94.7481 90.53 94.8331 90.0776C94.9171 89.6243 95.0569 89.596 95.3091 89.596H103.264C103.713 89.596 104.021 89.6526 104.19 89.0302C104.357 88.4079 104.553 87.1074 104.581 86.7107C104.609 86.315 104.694 85.9759 103.853 85.9759L82.339 85.975ZM78.7161 86.1081C77.7075 86.1081 66.5026 86.1459 64.6723 86.1459C62.8419 86.1459 58.9574 86.0704 58.472 91.6898C57.9865 97.3092 62.1326 97.2337 63.3274 97.2337H73.3007C74.009 97.2337 75.1679 97.3092 75.1679 98.4029V99.9112C75.1679 100.817 74.7193 101.684 73.449 101.684H57.8373C57.1649 101.684 56.6794 101.608 56.5292 102.213C56.38 102.815 56.194 104.136 56.1184 104.513C56.0438 104.89 55.9324 105.38 56.8655 105.38H71.9926C74.8316 105.38 77.9691 105.078 78.6415 101.269C79.314 97.4604 79.0524 93.4625 73.9354 93.4625H63.8874C63.1413 93.4625 62.3196 93.2359 62.3196 91.7654C62.3196 90.2939 63.028 89.8037 64.2983 89.8037H77.9124C78.9957 89.8037 79.0146 89.6904 79.2016 88.5967C79.3886 87.5031 79.3886 87.2018 79.4632 86.6739C79.5378 86.145 79.2384 86.1072 78.7161 86.1072M46.5389 97.1666C46.6976 97.1666 46.7533 97.0816 46.6881 96.8833C46.622 96.685 44.2892 90.0521 44.2637 89.9539C44.2411 89.8689 44.2109 89.8047 44.0956 89.9634L39.1241 96.8654C39.0221 97.007 38.956 97.1487 39.143 97.1487L46.538 97.1676M55.1381 104.445C55.3345 104.984 55.5026 105.181 54.5497 105.266C53.5977 105.351 51.4406 105.323 50.7681 105.266C50.0957 105.21 49.5356 105.21 49.2561 104.417C48.8582 103.278 48.4659 102.137 48.0793 100.994C47.9669 100.654 47.9395 100.429 47.4909 100.429H37.3221C36.8461 100.429 36.5382 100.457 36.2294 100.854C35.9215 101.249 33.8767 104.191 33.5689 104.587C33.26 104.984 32.785 105.238 32.0842 105.266C31.3834 105.295 29.0771 105.342 28.6662 105.228C28.3149 105.131 28.059 105.153 28.6474 104.36C29.0346 103.84 40.9639 87.1905 41.3558 86.6824C41.7487 86.1724 42.0566 86.0033 42.8971 86.0033C43.7377 86.0033 44.0172 85.975 44.5782 85.975C45.1383 85.975 46.2584 86.06 46.7627 86.06C47.2671 86.06 47.4626 86.06 47.9395 87.2481C48.4155 88.4362 54.9426 103.907 55.1381 104.445ZM15.0521 104.333C15.2787 103.093 17.909 87.5871 18.0497 86.8514C18.1895 86.1166 18.5541 86.0033 19.3937 86.0033H35.0252C35.726 86.0033 35.9772 86.145 35.8657 86.9081C35.7795 87.5442 35.6674 88.1766 35.5295 88.8036C35.3897 89.426 35.3331 89.7084 34.213 89.7084C33.0919 89.7084 24.2122 89.7367 23.5955 89.7367C22.9797 89.7367 22.6992 89.6234 22.5595 90.5291C22.4197 91.4339 22.0551 93.3294 21.9994 93.8951C21.9427 94.4608 21.887 94.5741 22.4197 94.5741C22.9514 94.5741 29.4785 94.5458 30.0111 94.5458C30.5429 94.5458 30.711 94.6308 30.6552 95.2522C30.5986 95.8756 30.3747 97.2894 30.235 97.7985C30.0952 98.3075 29.9271 98.5059 29.1422 98.5059C28.3584 98.5059 22.3073 98.4775 21.8039 98.4775C21.2986 98.4775 21.1872 98.5342 21.1031 99.0432C20.7914 100.826 20.4738 102.608 20.1502 104.389C20.0387 104.983 19.9547 105.238 18.8336 105.294C17.7135 105.35 16.5367 105.294 15.7802 105.294C15.0247 105.294 14.9114 105.096 15.0521 104.333Z" fill="white"/>
</g>
</g>
<defs>
<clipPath id="clip0_1111_33">
<rect width="170" height="28.3333" fill="white" transform="translate(15 85.8333)"/>
</clipPath>
<clipPath id="clip1_1111_33">
<rect width="170" height="28.3333" fill="white" transform="translate(15 85.8333)"/>
</clipPath>
</defs>
</svg>
