<svg width="200" height="200" viewBox="0 0 200 200" fill="none" xmlns="http://www.w3.org/2000/svg">
<rect width="200" height="200" fill="#0C6A54"/>
<path d="M27.3676 111.787H32.7223V78.287H27.3676V111.787Z" fill="white"/>
<path d="M48.0984 107.694C51.6022 107.694 54.7984 105.222 54.7984 100.003C54.7984 94.7892 51.6022 92.3178 48.0984 92.3178C44.5424 92.3178 41.3984 94.7892 41.3984 100.003C41.3984 105.222 44.5424 107.694 48.0984 107.694ZM36.0488 100.003C36.0488 92.1353 41.3984 87.5939 48.0984 87.5939C54.7984 87.5939 60.1479 92.1353 60.1479 100.003C60.1479 107.918 54.7984 112.459 48.0984 112.459C41.3515 112.459 36.0488 107.918 36.0488 100.003Z" fill="white"/>
<path d="M66.1023 97.6726C67.583 97.6726 68.7771 98.8718 68.7771 100.347V101.625C68.7771 104.367 70.3986 106.166 73.3184 106.166C76.2904 106.166 78.7149 103.736 78.7149 100.363V100.347C78.7149 98.8718 79.9142 97.6726 81.3897 97.6726C82.8705 97.6726 84.0645 98.8718 84.0645 100.347V111.333C84.0645 117.178 80.1123 121 73.4123 121C68.3286 121 63.6986 118.169 63.4275 112.731H68.7771C69.0482 115.291 71.3423 116.506 73.454 116.506C76.2435 116.506 78.7149 115.113 78.7149 111.469V107.6C77.5887 109.222 75.2528 110.974 71.7907 110.974C66.3943 110.974 63.4275 107.199 63.4275 102.209V100.347C63.4275 98.8718 64.6267 97.6726 66.1023 97.6726Z" fill="white"/>
<path d="M98.9037 107.6C102.272 107.6 105.061 104.998 105.061 100.003C105.061 94.9248 102.272 92.4533 98.9037 92.4533C95.5771 92.4533 92.7876 94.9248 92.7876 100.003C92.7876 105.129 95.5771 107.6 98.9037 107.6ZM87.3964 100.003C87.3964 92.0466 92.2923 87.5939 97.8713 87.5939C101.328 87.5939 103.847 89.1685 105.244 91.2854V88.2717H110.411V111.787H105.244V108.773C103.893 110.838 101.422 112.459 97.8713 112.459C92.2923 112.459 87.3964 108.007 87.3964 100.003Z" fill="white"/>
<path d="M126.282 107.6C129.656 107.6 132.398 105.129 132.398 100.003C132.398 94.9249 129.656 92.4534 126.282 92.4534C122.956 92.4534 120.172 95.0604 120.172 100.003C120.172 105.129 122.914 107.6 126.282 107.6ZM119.989 108.82V111.787H114.817V78.287H120.172V91.0091C121.564 89.08 123.993 87.594 127.362 87.594C132.935 87.594 137.842 92.0467 137.842 100.003C137.842 108.007 132.935 112.46 127.362 112.46C123.946 112.46 121.381 110.932 119.989 108.82Z" fill="white"/>
<path d="M141.163 111.787H146.513V78.287H141.163V111.787Z" fill="white"/>
<path d="M167.061 97.5318C166.884 94.0227 164.589 92.1353 161.487 92.1353C158.567 92.1353 156.002 93.8455 155.194 97.5318H167.061ZM149.844 100.003C149.844 92.2708 155.236 87.5939 161.534 87.5939C168.636 87.5939 173.495 93.2146 172.504 101.354H155.011C155.465 105.806 158.161 107.918 161.534 107.918C164.183 107.918 166.3 106.703 166.972 104.456H172.41C171.336 109.493 167.108 112.459 161.534 112.459C155.011 112.459 149.844 107.782 149.844 100.003Z" fill="white"/>
<path d="M66.1023 88.2717C67.583 88.2717 68.7771 89.4657 68.7771 90.9465V92.5472C68.7771 94.0332 67.5205 95.2011 66.0814 95.2011C64.6424 95.2011 63.4275 94.0332 63.4275 92.5472V90.9465C63.4275 89.4657 64.6267 88.2717 66.1023 88.2717Z" fill="white"/>
<path d="M81.3899 88.2717C82.8706 88.2717 84.0646 89.4657 84.0646 90.9465V92.5472C84.0646 94.0332 82.8081 95.2011 81.369 95.2011C79.9299 95.2011 78.7151 94.0332 78.7151 92.5472V90.9465C78.7151 89.4657 79.9143 88.2717 81.3899 88.2717Z" fill="white"/>
</svg>
