<svg width="200" height="200" viewBox="0 0 200 200" fill="none" xmlns="http://www.w3.org/2000/svg">
<rect width="200" height="200" fill="#F7F6F0"/>
<g clip-path="url(#clip0_338_338)">
<path d="M51.4187 90.5673L57.2031 88.4971L55.133 82.7202L49.356 84.7903" fill="#FB513B"/>
<path d="M38.0336 81.1357H44.1693V75H38.0336" fill="#FB513B"/>
<path d="M32.8471 84.7903L27.0702 82.7202L25 88.4971L30.777 90.5673" fill="#FB513B"/>
<path fill-rule="evenodd" clip-rule="evenodd" d="M38.0337 87.9366V125.117H44.1694V87.9366H38.0337ZM81.7012 103.952C82.6354 102.36 83.9133 101.142 85.5276 100.313C87.1419 99.4831 88.9355 99.0646 90.9085 99.0646C93.1655 99.0646 95.0712 99.5878 96.6332 100.627C98.1951 101.665 99.3535 103.07 100.116 104.842C100.878 103.041 102.029 101.628 103.576 100.604C105.116 99.5803 107.021 99.0721 109.271 99.0721C111.281 99.0721 113.082 99.4906 114.682 100.32C116.281 101.15 117.544 102.368 118.478 103.96C119.412 105.552 119.883 107.427 119.883 109.58V125.132H113.8V109.894C113.8 108.332 113.299 107.061 112.29 106.067C111.281 105.081 110.018 104.588 108.494 104.588C106.969 104.588 105.661 105.081 104.675 106.067C103.688 107.054 103.195 108.332 103.195 109.894V125.132H97.0592V109.894C97.0592 108.332 96.5584 107.061 95.5495 106.067C94.5481 105.081 93.2776 104.588 91.753 104.588C90.2284 104.588 88.9654 105.081 87.9565 106.067C86.955 107.054 86.4468 108.332 86.4468 109.894V125.132H80.3111V109.58C80.3111 107.427 80.7819 105.559 81.7161 103.96L81.7012 103.952ZM146.01 122.673C143.88 124.646 141.063 125.64 137.558 125.64C134.053 125.64 131.235 124.654 129.105 122.673C126.975 120.7 125.907 118.01 125.907 114.609V99.5803H132.042V114.452C132.042 116.149 132.566 117.517 133.604 118.563C134.643 119.602 135.966 120.125 137.558 120.125C139.15 120.125 140.473 119.602 141.511 118.563C142.55 117.524 143.073 116.156 143.073 114.452V99.5803H149.209V114.609C149.209 118.01 148.14 120.693 146.01 122.673ZM156.907 116.687L153.215 119.863H153.23C154.411 121.776 155.987 123.211 157.96 124.183C159.941 125.154 162.265 125.64 164.933 125.64C168.162 125.64 170.65 124.953 172.399 123.563C174.148 122.18 175.022 120.185 175.022 117.584C175.022 113.526 172.75 111.067 168.207 110.2L163.887 109.37C162.601 109.094 161.705 108.72 161.182 108.249C160.666 107.779 160.404 107.181 160.404 106.456C160.404 105.626 160.748 104.954 161.421 104.453C162.093 103.952 163.072 103.698 164.358 103.698C167.033 103.698 169.245 104.752 171.017 106.867L174.499 103.795C171.936 100.679 168.535 99.1168 164.305 99.1168C161.324 99.1168 159.007 99.7894 157.363 101.142C155.711 102.495 154.889 104.356 154.889 106.71C154.889 108.586 155.427 110.155 156.503 111.418C157.579 112.689 159.171 113.511 161.286 113.892L165.965 114.774C168.319 115.185 169.5 116.224 169.5 117.89C169.5 118.892 169.103 119.676 168.326 120.229C167.541 120.782 166.405 121.059 164.918 121.059C161.413 121.059 158.745 119.602 156.907 116.687ZM71.0664 122.673C68.9365 124.646 66.119 125.64 62.6139 125.64C59.1089 125.64 56.2914 124.654 54.1614 122.673C52.0315 120.7 50.9628 118.01 50.9628 114.609V99.5803H57.0985V114.452C57.0985 116.149 57.6217 117.517 58.6605 118.563C59.6993 119.609 61.0146 120.125 62.6139 120.125C64.2133 120.125 65.5286 119.602 66.5674 118.563C67.6062 117.524 68.1294 116.156 68.1294 114.452V99.5803H74.2651V114.609C74.2651 118.01 73.1964 120.693 71.0664 122.673Z" fill="black"/>
</g>
<defs>
<clipPath id="clip0_338_338">
<rect width="150" height="50.6402" fill="white" transform="translate(25 75)"/>
</clipPath>
</defs>
</svg>
