<svg width="200" height="200" viewBox="0 0 200 200" fill="none" xmlns="http://www.w3.org/2000/svg">
<g clip-path="url(#clip0_2485_15283)">
<path d="M200 0H0V200H200V0Z" fill="#FF5E3A"/>
<path d="M39.2718 87.0132V60.6964H46.233V87.0132H39.2718ZM45.5781 56.8156C44.8181 57.5757 43.8721 57.9556 42.7402 57.9556C41.6245 57.9556 40.6786 57.5757 39.9024 56.8156C39.1424 56.0556 38.7625 55.1097 38.7625 53.9778C38.7625 52.8459 39.1424 51.8999 39.9024 51.14C40.6786 50.38 41.6245 50 42.7402 50C43.8721 50 44.8181 50.38 45.5781 51.14C46.3381 51.8999 46.7181 52.8459 46.7181 53.9778C46.7181 55.1097 46.3381 56.0556 45.5781 56.8156ZM61.6117 87.0132C56.1462 87.0132 53.4135 84.4502 53.4135 79.3243V67.1483H49.1931V60.6964H53.4135L54.4079 53.7352H60.3746V60.6964H66.584V67.1483H60.3746V78.063C60.3746 78.7907 60.593 79.389 61.0295 79.8579C61.4823 80.3269 62.0886 80.5614 62.8487 80.5614H66.584V87.0132H61.6117ZM75.0257 87.0132L67.8219 60.6964H75.0257L79.5128 78.3299H79.7554L84.2183 60.6964H91.4221L95.885 78.3299H96.1518L100.615 60.6964H107.309L100.105 87.0132H92.4165L87.9536 70.3742H87.6868L83.2238 87.0132H75.0257ZM120.723 87.4983C116.713 87.4983 113.56 86.3017 111.263 83.9085C108.968 81.5154 107.82 78.1682 107.82 73.8669C107.82 69.5495 108.968 66.1942 111.263 63.8011C113.56 61.3917 116.713 60.1871 120.723 60.1871C124.539 60.1871 127.604 61.416 129.916 63.8738C132.228 66.3155 133.384 69.4768 133.384 73.3576L133.142 76.0742H115.024C115.622 79.5507 117.522 81.289 120.723 81.289C121.984 81.289 122.946 81.095 123.609 80.7068C124.272 80.3026 124.887 79.672 125.453 78.815H132.899C132.204 81.3375 130.862 83.4154 128.873 85.0485C126.884 86.6817 124.167 87.4983 120.723 87.4983ZM115.024 70.8593H126.181C125.922 69.5981 125.315 68.5389 124.362 67.6819C123.424 66.8249 122.211 66.3964 120.723 66.3964C117.812 66.3964 115.913 67.8841 115.024 70.8593ZM145.998 79.4456C147.13 80.6745 148.553 81.289 150.267 81.289C151.997 81.289 153.42 80.6745 154.535 79.4456C155.668 78.2005 156.233 76.3409 156.233 73.8669C156.233 71.3767 155.668 69.5091 154.535 68.264C153.42 67.0189 151.997 66.3964 150.267 66.3964C148.553 66.3964 147.13 67.0189 145.998 68.264C144.882 69.5091 144.325 71.3767 144.325 73.8669C144.325 76.3409 144.882 78.2005 145.998 79.4456ZM151.771 87.4983C148.795 87.4983 146.313 86.3421 144.325 84.0298H144.082L143.329 87.0132H137.363V52.2314H144.325V63.413H144.567C146.281 61.2624 148.682 60.1871 151.771 60.1871C155.215 60.1871 157.98 61.3756 160.066 63.7526C162.152 66.1134 163.195 69.4849 163.195 73.8669C163.195 78.2329 162.152 81.5962 160.066 83.957C157.98 86.3179 155.215 87.4983 151.771 87.4983Z" fill="white"/>
<path d="M43.7914 149.244C43.0314 150.004 42.0855 150.383 40.9536 150.383C39.8378 150.383 38.8999 150.004 38.14 149.244C37.38 148.484 37 147.546 37 146.43C37 145.298 37.38 144.352 38.14 143.593C38.8999 142.832 39.8378 142.453 40.9536 142.453C42.0855 142.453 43.0314 142.832 43.7914 143.593C44.5514 144.352 44.9313 145.298 44.9313 146.43C44.9313 147.546 44.5514 148.484 43.7914 149.244ZM57.0832 142.574C58.215 143.802 59.638 144.417 61.352 144.417C63.0823 144.417 64.5052 143.802 65.6209 142.574C66.7528 141.328 67.3188 139.469 67.3188 136.995C67.3188 134.504 66.7528 132.637 65.6209 131.392C64.5052 130.147 63.0823 129.524 61.352 129.524C59.638 129.524 58.215 130.147 57.0832 131.392C55.9513 132.637 55.3853 134.504 55.3853 136.995C55.3853 139.469 55.9513 141.328 57.0832 142.574ZM59.8725 150.626C56.4283 150.626 53.6632 149.446 51.5773 147.085C49.4913 144.724 48.4484 141.361 48.4484 136.995C48.4484 132.613 49.4913 129.241 51.5773 126.88C53.6632 124.504 56.4283 123.315 59.8725 123.315C62.9448 123.315 65.346 124.39 67.0762 126.541H67.3188V115.359H74.28V150.141H68.3132L67.5614 147.158H67.3188C65.3299 149.47 62.8478 150.626 59.8725 150.626ZM92.1559 150.626C88.1458 150.626 84.9927 149.429 82.6965 147.036C80.4004 144.643 79.2523 141.296 79.2523 136.995C79.2523 132.678 80.4004 129.323 82.6965 126.929C84.9927 124.52 88.1458 123.315 92.1559 123.315C95.9721 123.315 99.0363 124.544 101.349 127.001C103.661 129.444 104.817 132.605 104.817 136.485L104.575 139.202H86.4561C87.0543 142.679 88.9543 144.417 92.1559 144.417C93.4172 144.417 94.3793 144.223 95.0423 143.835C95.7053 143.43 96.3198 142.8 96.8857 141.943H104.332C103.636 144.465 102.295 146.543 100.306 148.176C98.3168 149.81 95.6002 150.626 92.1559 150.626ZM86.4561 133.987H97.6133C97.3546 132.726 96.7482 131.667 95.7942 130.81C94.8564 129.953 93.6436 129.524 92.1559 129.524C89.2453 129.524 87.3453 131.012 86.4561 133.987ZM115.271 150.141L106.079 123.824H113.524L119.492 142.938H119.734L125.7 123.824H133.147L123.954 150.141H115.271Z" fill="black"/>
</g>
<defs>
<clipPath id="clip0_2485_15283">
<rect width="200" height="200" fill="white"/>
</clipPath>
</defs>
</svg>
