<svg width="342" height="342" viewBox="0 0 342 342" fill="none" xmlns="http://www.w3.org/2000/svg">
<rect width="342" height="342" fill="#0A3C23"/>
<path d="M58 190.042H66.3186V138H58V190.042Z" fill="white"/>
<path d="M90.2051 183.683C95.6483 183.683 100.614 179.844 100.614 171.736C100.614 163.636 95.6483 159.797 90.2051 159.797C84.681 159.797 79.7968 163.636 79.7968 171.736C79.7968 179.844 84.681 183.683 90.2051 183.683ZM71.4863 171.736C71.4863 159.513 79.7968 152.458 90.2051 152.458C100.614 152.458 108.924 159.513 108.924 171.736C108.924 184.032 100.614 191.087 90.2051 191.087C79.7239 191.087 71.4863 184.032 71.4863 171.736Z" fill="white"/>
<path d="M118.174 168.115C120.474 168.115 122.329 169.978 122.329 172.27V174.255C122.329 178.515 124.848 181.31 129.384 181.31C134.001 181.31 137.768 177.535 137.768 172.295V172.27C137.768 169.978 139.631 168.115 141.923 168.115C144.223 168.115 146.078 169.978 146.078 172.27V189.337C146.078 198.417 139.938 204.354 129.53 204.354C121.633 204.354 114.44 199.956 114.019 191.508H122.329C122.75 195.485 126.314 197.372 129.595 197.372C133.928 197.372 137.768 195.209 137.768 189.548V183.537C136.018 186.056 132.389 188.778 127.011 188.778C118.628 188.778 114.019 182.914 114.019 175.162V172.27C114.019 169.978 115.882 168.115 118.174 168.115Z" fill="white"/>
<path d="M169.131 183.538C174.363 183.538 178.697 179.496 178.697 171.736C178.697 163.847 174.363 160.007 169.131 160.007C163.963 160.007 159.629 163.847 159.629 171.736C159.629 179.698 163.963 183.538 169.131 183.538ZM151.254 171.736C151.254 159.376 158.86 152.458 167.527 152.458C172.897 152.458 176.809 154.904 178.98 158.193V153.511H187.007V190.042H178.98V185.36C176.882 188.568 173.043 191.087 167.527 191.087C158.86 191.087 151.254 184.169 151.254 171.736Z" fill="white"/>
<path d="M211.663 183.538C216.904 183.538 221.164 179.698 221.164 171.736C221.164 163.847 216.904 160.007 211.663 160.007C206.495 160.007 202.17 164.057 202.17 171.736C202.17 179.698 206.431 183.538 211.663 183.538ZM201.887 185.433V190.042H193.851V138H202.17V157.764C204.333 154.767 208.107 152.458 213.34 152.458C221.999 152.458 229.621 159.376 229.621 171.736C229.621 184.169 221.999 191.087 213.34 191.087C208.034 191.087 204.049 188.713 201.887 185.433Z" fill="white"/>
<path d="M234.78 190.042H243.091V138H234.78V190.042Z" fill="white"/>
<path d="M275.012 167.897C274.737 162.445 271.173 159.513 266.353 159.513C261.817 159.513 257.832 162.17 256.577 167.897H275.012ZM248.266 171.736C248.266 159.724 256.642 152.458 266.426 152.458C277.458 152.458 285.007 161.19 283.468 173.834H256.293C256.998 180.751 261.186 184.032 266.426 184.032C270.541 184.032 273.83 182.144 274.874 178.653H283.323C281.654 186.478 275.085 191.087 266.426 191.087C256.293 191.087 248.266 183.821 248.266 171.736Z" fill="white"/>
<path d="M118.174 153.511C120.474 153.511 122.329 155.366 122.329 157.666V160.153C122.329 162.461 120.377 164.276 118.142 164.276C115.906 164.276 114.019 162.461 114.019 160.153V157.666C114.019 155.366 115.882 153.511 118.174 153.511Z" fill="white"/>
<path d="M141.923 153.511C144.223 153.511 146.078 155.366 146.078 157.666V160.153C146.078 162.461 144.126 164.276 141.891 164.276C139.655 164.276 137.768 162.461 137.768 160.153V157.666C137.768 155.366 139.631 153.511 141.923 153.511Z" fill="white"/>
</svg>
