<svg width="512" height="512" viewBox="0 0 512 512" fill="none" xmlns="http://www.w3.org/2000/svg">
<rect width="512" height="512" fill="#0C6A54"/>
<path d="M187.73 194.044C200.955 194.044 211.619 204.754 211.619 217.933V229.343C211.619 253.838 226.102 269.904 252.181 269.904C278.725 269.904 300.379 248.203 300.379 218.073V217.933C300.379 204.754 311.09 194.044 324.269 194.044C337.494 194.044 348.159 204.754 348.159 217.933V316.053C348.159 368.257 312.86 402.392 253.019 402.392C207.614 402.392 166.262 377.105 163.84 328.534H211.619C214.041 351.399 234.531 362.25 253.391 362.25C278.306 362.25 300.379 349.816 300.379 317.264V282.71C290.32 297.193 269.458 312.84 238.536 312.84C190.338 312.84 163.84 279.125 163.84 234.558V217.933C163.84 204.754 174.551 194.044 187.73 194.044Z" fill="white"/>
<path d="M187.73 110.08C200.955 110.08 211.619 120.744 211.619 133.97V148.266C211.619 161.538 200.396 171.97 187.543 171.97C174.69 171.97 163.84 161.538 163.84 148.266V133.97C163.84 120.744 174.551 110.08 187.73 110.08Z" fill="white"/>
<path d="M324.27 110.08C337.496 110.08 348.16 120.744 348.16 133.97V148.266C348.16 161.538 336.937 171.97 324.084 171.97C311.231 171.97 300.381 161.538 300.381 148.266V133.97C300.381 120.744 311.091 110.08 324.27 110.08Z" fill="white"/>
</svg>
