<svg width="200" height="200" viewBox="0 0 200 200" fill="none" xmlns="http://www.w3.org/2000/svg">
<g clip-path="url(#clip0_1136_7)">
<path d="M157.6 58.024H120.808V50.392H151.192C138.232 37 120.016 28.72 99.928 28.72C60.544 28.792 28.648 60.688 28.72 100.072C28.72 119.368 36.424 136.864 48.952 149.68C47.944 148.24 47.224 146.728 46.792 145.288C46.072 142.768 46.072 141.04 46 133.912V100H56.656V134.92C56.656 137.368 56.584 139.672 57.376 141.832C59.536 147.304 65.512 147.952 68.896 147.952C70.552 147.952 74.872 147.88 77.968 145.144C81.136 142.336 81.136 139.096 81.136 134.344V100H91.864V135.784C91.792 142.192 91.792 147.52 85.744 152.704C79.984 157.744 72.496 158.248 68.608 158.248C65.152 158.248 61.768 157.816 58.528 156.736C57.232 156.304 56.008 155.728 54.928 155.08C67.24 165.16 83.008 171.208 100.144 171.208C139.528 171.136 171.424 139.24 171.352 99.856C171.28 84.232 166.168 69.76 157.6 58.024ZM154.216 95.968L149.68 89.488C151.192 88.48 155.944 85.384 155.944 76.744C155.944 75.304 155.8 73.792 155.224 72.28C154 69.328 151.912 68.752 150.472 68.752C147.88 68.752 146.944 70.552 146.368 71.848C146.008 72.784 145.936 72.928 145.072 76.6L143.992 81.568C143.344 84.16 143.056 85.456 142.552 86.752C141.76 88.624 139.312 93.664 132.472 93.664C124.624 93.664 119.656 87.04 119.656 77.392C119.656 68.536 124.048 63.712 128.008 60.832L132.76 67.168C130.744 68.536 126.64 71.272 126.64 77.824C126.64 82 128.512 85.6 131.68 85.6C135.208 85.6 135.856 81.784 136.576 78.04L137.512 73.792C138.664 68.248 140.968 60.4 149.752 60.4C159.184 60.4 163 69.184 163 77.896C163 80.2 162.784 82.72 162.064 85.24C161.272 88.048 159.256 92.872 154.216 95.968Z" fill="black"/>
</g>
<defs>
<clipPath id="clip0_1136_7">
<rect width="144" height="144" fill="white" transform="translate(28 28)"/>
</clipPath>
</defs>
</svg>
