<svg width="200" height="200" viewBox="0 0 200 200" fill="none" xmlns="http://www.w3.org/2000/svg">
<g clip-path="url(#clip0_1136_7)">
<path d="M168 50.445H124.565V41.435H160.435C145.135 25.625 123.63 15.85 99.9149 15.85C53.4199 15.935 15.7649 53.59 15.8499 100.085C15.8499 122.865 24.9449 143.52 39.7349 158.65C38.5449 156.95 37.6949 155.165 37.1849 153.465C36.3349 150.49 36.3349 148.45 36.2499 140.035V100H48.8299V141.225C48.8299 144.115 48.7449 146.835 49.6799 149.385C52.2299 155.845 59.2849 156.61 63.2799 156.61C65.2349 156.61 70.3349 156.525 73.9899 153.295C77.7299 149.98 77.7299 146.155 77.7299 140.545V100H90.3949V142.245C90.3099 149.81 90.3099 156.1 83.1699 162.22C76.3699 168.17 67.5299 168.765 62.9399 168.765C58.8599 168.765 54.8649 168.255 51.0399 166.98C49.5099 166.47 48.0649 165.79 46.7899 165.025C61.3249 176.925 79.9399 184.065 100.17 184.065C146.665 183.98 184.32 146.325 184.235 99.83C184.15 81.385 178.115 64.3 168 50.445ZM164.005 95.24L158.65 87.59C160.435 86.4 166.045 82.745 166.045 72.545C166.045 70.845 165.875 69.06 165.195 67.275C163.75 63.79 161.285 63.11 159.585 63.11C156.525 63.11 155.42 65.235 154.74 66.765C154.315 67.87 154.23 68.04 153.21 72.375L151.935 78.24C151.17 81.3 150.83 82.83 150.235 84.36C149.3 86.57 146.41 92.52 138.335 92.52C129.07 92.52 123.205 84.7 123.205 73.31C123.205 62.855 128.39 57.16 133.065 53.76L138.675 61.24C136.295 62.855 131.45 66.085 131.45 73.82C131.45 78.75 133.66 83 137.4 83C141.565 83 142.33 78.495 143.18 74.075L144.285 69.06C145.645 62.515 148.365 53.25 158.735 53.25C169.87 53.25 174.375 63.62 174.375 73.905C174.375 76.625 174.12 79.6 173.27 82.575C172.335 85.89 169.955 91.585 164.005 95.24Z" fill="black"/>
</g>
<defs>
<clipPath id="clip0_1136_7">
<rect width="170" height="170" fill="white" transform="translate(15 15)"/>
</clipPath>
</defs>
</svg>
