<svg width="40" height="40" viewBox="0 0 40 40" fill="none" xmlns="http://www.w3.org/2000/svg">
<path d="M24.2875 30.6574C24.0802 30.6574 23.873 30.647 23.6658 30.6263C23.4586 30.6055 23.241 30.5745 23.013 30.533C21.6039 30.2636 20.3294 29.7974 19.1896 29.1342C18.0499 28.4711 17.0241 27.694 16.1123 26.8029C15.2212 25.9325 14.4027 25.0104 13.6566 24.0364C12.9313 23.0624 12.2682 22.1299 11.6672 21.2388C11.0663 20.327 10.5067 19.5292 9.98868 18.8453C9.94723 18.7417 9.89542 18.7106 9.83325 18.752C9.79181 18.7935 9.77109 18.8142 9.77109 18.8142C9.31518 19.6846 8.89036 20.5031 8.49663 21.2699C8.12362 22.0159 7.84386 22.6169 7.65735 23.0728C7.49157 23.5287 7.40868 23.8499 7.40868 24.0364C7.40868 24.3265 7.52265 24.4716 7.7506 24.4716C8.04072 24.4716 8.35157 24.2747 8.68313 23.881C8.91109 23.6116 9.11831 23.3629 9.30482 23.1349C9.51205 22.8863 9.68819 22.7827 9.83325 22.8241C9.85398 22.8448 9.86434 22.8759 9.86434 22.9173C9.86434 23.021 9.79181 23.166 9.64675 23.3525C9.50169 23.5183 9.4188 23.6116 9.39807 23.6323C9.25301 23.8395 9.05615 24.1193 8.80747 24.4716C8.57952 24.8239 8.33084 25.1347 8.06145 25.4041C7.81277 25.6942 7.54337 25.8393 7.25325 25.8393C7.21181 25.8393 7.08747 25.8186 6.88024 25.7771C6.69374 25.7357 6.50723 25.6839 6.32072 25.6217C6.15494 25.5595 6.06169 25.487 6.04096 25.4041C5.99952 25.0104 6.09277 24.4612 6.32072 23.7566C6.5694 23.0313 6.90096 22.2335 7.31542 21.3631C7.72988 20.4928 8.1547 19.6431 8.58988 18.8142C8.25831 18.7313 8.02 18.6588 7.87494 18.5966C7.66771 18.4516 7.5641 18.2547 7.5641 18.006C7.5641 17.7988 7.64699 17.6123 7.81277 17.4465C7.97856 17.2807 8.22723 17.1978 8.5588 17.1978C8.66241 17.1978 8.78675 17.2186 8.93181 17.26C9.07687 17.3014 9.19084 17.374 9.27374 17.4776C9.62603 16.8559 9.93687 16.286 10.2063 15.768C10.4964 15.2499 10.7036 14.8458 10.828 14.5557C10.9523 14.3277 11.0352 14.1412 11.0766 13.9961C11.1181 13.8304 11.1388 13.706 11.1388 13.6231C11.1388 13.4988 11.1181 13.3952 11.0766 13.3123C11.1181 13.0636 11.2631 12.732 11.5118 12.3176C11.7812 11.9031 12.1128 11.4887 12.5065 11.0742C12.9002 10.6598 13.3251 10.3178 13.781 10.0484C14.2369 9.75831 14.6617 9.61325 15.0554 9.61325C15.1798 9.61325 15.3663 9.6547 15.6149 9.73759C15.8843 9.79976 16.133 9.90337 16.361 10.0484C16.6096 10.1935 16.7651 10.4007 16.8272 10.6701C16.848 10.7323 16.8583 10.7945 16.8583 10.8566C16.8583 10.9188 16.8376 10.9499 16.7961 10.9499C16.7547 10.9499 16.6925 10.9395 16.6096 10.9188C16.5475 10.8773 16.4957 10.8566 16.4542 10.8566C15.874 10.8566 15.2212 11.2089 14.4959 11.9135C13.7913 12.5973 13.066 13.4781 12.32 14.5557C11.5947 15.6333 10.9108 16.7523 10.2684 17.9128C10.372 17.9335 10.486 17.9646 10.6104 18.006C10.7554 18.0267 10.9212 18.0371 11.1077 18.0371C11.1906 18.0371 11.2631 18.0371 11.3253 18.0371C11.4082 18.0371 11.4911 18.0267 11.574 18.006C12.9002 17.861 14.2472 17.6019 15.6149 17.2289C17.0034 16.8559 18.2986 16.3689 19.5005 15.768C20.7024 15.167 21.6971 14.4624 22.4846 13.6542C23.2099 12.8875 23.5725 12.1 23.5725 11.2918C23.5725 10.6908 23.3446 10.1313 22.8887 9.61325C22.4328 9.09518 21.7178 8.70144 20.7439 8.43204C20.1636 8.26626 19.5005 8.14193 18.7545 8.05903C18.0292 7.97614 17.2417 7.9347 16.3921 7.9347C15.0658 7.9347 13.6981 8.04867 12.2889 8.27662C10.9005 8.50458 9.59494 8.85687 8.37229 9.33349C7.14964 9.7894 6.12386 10.3696 5.29494 11.0742C4.46602 11.7788 3.96867 12.6181 3.80289 13.592C3.74072 14.0894 3.83398 14.4831 4.08265 14.7733C4.33133 15.0634 4.63181 15.2913 4.9841 15.4571C5.35711 15.6022 5.64723 15.7369 5.85446 15.8612C5.99952 15.9855 6.07205 16.0892 6.07205 16.172C6.07205 16.3171 5.93735 16.3689 5.66795 16.3275C5.37783 16.2653 5.01518 16.1202 4.58 15.8923C4.16554 15.6643 3.79253 15.3535 3.46096 14.9598C3.15012 14.5453 2.9947 14.0687 2.9947 13.5299C2.9947 13.447 2.9947 13.3641 2.9947 13.2812C3.01542 13.1983 3.03614 13.1154 3.05687 13.0325C3.05687 13.0118 3.04651 12.9496 3.02578 12.846C3.02578 12.7217 3.02578 12.6181 3.02578 12.5352C3.15012 11.8928 3.46096 11.2918 3.95831 10.7323C4.47639 10.152 5.05663 9.64433 5.69904 9.20915C6.36217 8.75325 6.97349 8.3906 7.53301 8.1212C8.50699 7.64457 9.67783 7.27156 11.0455 7.00216C12.4133 6.71204 13.8431 6.56698 15.3352 6.56698C16.247 6.56698 17.1484 6.62915 18.0395 6.75349C18.9513 6.87783 19.8321 7.0747 20.6817 7.34409C21.8629 7.73783 22.7747 8.34915 23.4171 9.17807C24.0802 9.98626 24.3807 10.8359 24.3186 11.727C24.2564 12.5766 23.9559 13.3434 23.4171 14.0272C22.899 14.7111 22.2255 15.312 21.3966 15.8301C20.5884 16.3275 19.687 16.7626 18.6923 17.1357C17.7183 17.488 16.734 17.7781 15.7393 18.006C14.9311 18.1718 14.0814 18.3065 13.1904 18.4101C12.2993 18.5137 11.46 18.5863 10.6725 18.6277C11.5636 19.726 12.4443 20.8347 13.3147 21.9537C14.2058 23.052 15.1487 24.0882 16.1434 25.0622C17.1588 26.0361 18.2675 26.8651 19.4694 27.5489C20.6713 28.2535 22.0287 28.7508 23.5414 29.041C23.8523 29.1031 24.1735 29.1342 24.5051 29.1342C25.0439 29.1342 25.5723 29.0513 26.0904 28.8855C26.6292 28.7198 27.0747 28.4607 27.427 28.1084C27.7793 27.7561 27.9554 27.2899 27.9554 26.7096C27.9554 26.606 27.9451 26.5024 27.9243 26.3988C27.9243 26.2952 27.914 26.1916 27.8933 26.088C27.8933 26.0465 27.8829 26.0154 27.8622 25.9947C27.8622 25.974 27.8622 25.9533 27.8622 25.9325C27.8622 25.746 27.9347 25.6528 28.0798 25.6528C28.287 25.6528 28.4217 25.8082 28.4839 26.119C28.546 26.4299 28.5771 26.72 28.5771 26.9894C28.5771 27.3002 28.546 27.5904 28.4839 27.8598C28.4424 28.1292 28.3802 28.3778 28.2974 28.6058C28.1108 29.186 27.6342 29.673 26.8675 30.0667C26.1214 30.4605 25.2614 30.6574 24.2875 30.6574ZM23.7928 26.0569C22.3422 26.0569 21.2024 25.8082 20.3735 25.3108C19.5446 24.8342 19.1301 24.1504 19.1301 23.2593C19.1301 22.3475 19.3995 21.5082 19.9383 20.7414C20.4771 19.954 21.1713 19.2805 22.021 18.721C22.8913 18.1407 23.7928 17.6952 24.7253 17.3843C25.6786 17.0528 26.5593 16.887 27.3675 16.887C27.782 16.887 27.9892 16.9492 27.9892 17.0735C27.9892 17.26 27.7716 17.3533 27.3364 17.3533C26.5697 17.3533 25.7304 17.5398 24.8186 17.9128C23.9275 18.2858 23.1297 18.8039 22.4251 19.467C21.8656 19.9643 21.4407 20.472 21.1506 20.9901C20.8812 21.4875 20.7465 21.9537 20.7465 22.3889C20.7465 23.0313 21.047 23.5701 21.648 24.0053C22.2489 24.4198 23.1504 24.627 24.3523 24.627C25.0569 24.627 25.7718 24.5752 26.4971 24.4716C27.2224 24.3472 27.8752 24.2125 28.4554 24.0675C29.0564 23.9224 29.5123 23.8084 29.8232 23.7255C30.5899 23.4769 31.3567 23.1764 32.1234 22.8241C32.9109 22.4718 33.6154 22.0781 34.2371 21.6429C34.8588 21.187 35.3147 20.7311 35.6048 20.2752C35.7706 20.0265 35.8846 19.7882 35.9468 19.5602C36.0297 19.3323 36.0711 19.1147 36.0711 18.9075C36.0711 18.3272 35.8121 17.8402 35.294 17.4465C34.7759 17.032 34.1128 16.659 33.3046 16.3275C32.4964 15.9959 31.6364 15.6851 30.7246 15.3949C29.8128 15.0841 28.9528 14.7629 28.1446 14.4313C27.3364 14.0998 26.6733 13.7267 26.1552 13.3123C25.6371 12.8771 25.3781 12.359 25.3781 11.7581C25.3781 11.0742 25.6268 10.4629 26.1241 9.92409C26.6422 9.36458 27.295 8.87759 28.0824 8.46313C28.8906 8.02795 29.7506 7.67566 30.6624 7.40626C31.5742 7.11614 32.4446 6.89855 33.2735 6.75349C34.1024 6.60843 34.7863 6.5359 35.3251 6.5359C37.6046 6.5359 38.7444 7.10578 38.7444 8.24554C38.7444 8.70144 38.5579 9.22988 38.1848 9.83084C38.0191 10.1417 37.7807 10.4422 37.4699 10.7323C37.1591 11.0017 36.9207 11.1364 36.755 11.1364C36.6306 11.1364 36.5685 11.0639 36.5685 10.9188C36.5685 10.8566 36.6824 10.7323 36.9104 10.5458C37.1383 10.3386 37.3663 10.0899 37.5942 9.79976C37.8222 9.50964 37.9362 9.21952 37.9362 8.9294C37.9362 8.49421 37.6875 8.16265 37.1901 7.9347C36.7135 7.70674 36.0815 7.59277 35.294 7.59277C34.921 7.59277 34.3822 7.65494 33.6776 7.77927C32.973 7.88289 32.2063 8.05903 31.3774 8.30771C30.5485 8.55638 29.7506 8.88795 28.9839 9.30241C27.554 10.0899 26.8391 10.7634 26.8391 11.3229C26.8391 11.7373 27.2432 12.1311 28.0514 12.5041C28.6523 12.7735 29.3465 13.0533 30.134 13.3434C30.9215 13.6335 31.7193 13.9443 32.5275 14.2759C33.3357 14.6075 34.0817 14.9805 34.7656 15.3949C35.4701 15.8094 36.0297 16.2757 36.4441 16.7937C36.8793 17.2911 37.0969 17.861 37.0969 18.5034C37.0969 19.3737 36.6203 20.2648 35.667 21.1766C34.921 21.8812 34.0506 22.534 33.0559 23.1349C32.082 23.7359 31.0458 24.254 29.9475 24.6892C28.8699 25.1243 27.8027 25.4559 26.7458 25.6839C25.6889 25.9325 24.7046 26.0569 23.7928 26.0569Z" fill="white"/>
</svg>
