<svg width="200" height="200" viewBox="0 0 200 200" fill="none" xmlns="http://www.w3.org/2000/svg">
<rect width="200" height="200" fill="#112555"/>
<g clip-path="url(#clip0_26_2)">
<path d="M143.87 105.123C144.158 104.835 144.303 104.45 144.303 104.065V88.8582C144.303 88.0402 144.014 87.2702 143.437 86.6928L140.597 83.7092C139.972 83.0837 138.961 83.0837 138.336 83.7092L83.4292 141.311C82.4668 142.321 83.1886 143.957 84.536 143.957H106.143C106.576 143.957 106.961 143.765 107.249 143.476L143.87 105.123Z" fill="#2CCFF7"/>
<path d="M118.269 62.632L56.4331 127.5C56.1444 127.788 56 128.173 56 128.558V142.369C56 143.235 56.6737 143.909 57.5399 143.909H65.9611C66.3942 143.909 66.7792 143.717 67.0679 143.428L131.31 76.1541C131.887 75.5767 131.887 74.6143 131.31 73.9887L120.531 62.632C119.905 62.0064 118.895 62.0064 118.269 62.632Z" fill="#15E8D8"/>
<path d="M111.243 52.9115L101.282 42.4692C100.657 41.8436 99.6461 41.8436 99.0205 42.4692L56.4331 87.1258C56.1444 87.4146 56 87.7995 56 88.1845V109.117C56 110.513 57.7324 111.187 58.6948 110.176L111.243 55.077C111.821 54.4514 111.821 53.5371 111.243 52.9115Z" fill="#B8FFF6"/>
<path d="M123.562 141.311C122.6 142.321 123.322 143.957 124.669 143.957H142.667C143.533 143.957 144.207 143.284 144.207 142.417V123.506C144.207 122.11 142.474 121.436 141.512 122.447L123.562 141.311Z" fill="#2F91F4"/>
</g>
<defs>
<clipPath id="clip0_26_2">
<rect width="88.3028" height="102" fill="white" transform="translate(56 42)"/>
</clipPath>
</defs>
</svg>
