<svg width="1024" height="1024" viewBox="0 0 1024 1024" fill="none" xmlns="http://www.w3.org/2000/svg">
<rect width="1024" height="1024" fill="white"/>
<path d="M644.359 801.344H715.156C738.015 801.344 759.937 792.263 776.1 776.1C792.263 759.937 801.344 738.015 801.344 715.156V644.359" stroke="#FF4F4F" stroke-width="52.0925" stroke-linecap="round" stroke-linejoin="round"/>
<path d="M801.344 379.641V308.844C801.344 285.985 792.263 264.063 776.1 247.9C759.937 231.737 738.015 222.656 715.156 222.656H644.359" stroke="#FF4F4F" stroke-width="52.0925" stroke-linecap="round" stroke-linejoin="round"/>
<path d="M379.641 801.344H308.844C285.985 801.344 264.063 792.263 247.9 776.1C231.737 759.937 222.656 738.015 222.656 715.156V644.359" stroke="#FF4F4F" stroke-width="52.0925" stroke-linecap="round" stroke-linejoin="round"/>
<path d="M222.656 379.641V308.844C222.656 285.985 231.737 264.063 247.9 247.9C264.063 231.737 285.985 222.656 308.844 222.656H379.641" stroke="#FF4F4F" stroke-width="52.0925" stroke-linecap="round" stroke-linejoin="round"/>
<path d="M657.037 588.34H595.967C591.751 588.34 588.334 591.758 588.334 595.974V657.044C588.334 661.26 591.751 664.677 595.967 664.677H657.037C661.253 664.677 664.671 661.26 664.671 657.044V595.974C664.671 591.758 661.253 588.34 657.037 588.34Z" fill="black"/>
<path d="M580.7 527.27H534.898C530.682 527.27 527.264 530.688 527.264 534.904V580.707C527.264 584.923 530.682 588.34 534.898 588.34H580.7C584.916 588.34 588.334 584.923 588.334 580.707V534.904C588.334 530.688 584.916 527.27 580.7 527.27Z" fill="black"/>
<path d="M718.11 664.668H672.308C668.092 664.668 664.674 668.086 664.674 672.302V718.104C664.674 722.32 668.092 725.738 672.308 725.738H718.11C722.326 725.738 725.744 722.32 725.744 718.104V672.302C725.744 668.086 722.326 664.668 718.11 664.668Z" fill="black"/>
<path d="M718.107 527.27H687.572C683.356 527.27 679.938 530.688 679.938 534.904V565.439C679.938 569.655 683.356 573.073 687.572 573.073H718.107C722.323 573.073 725.741 569.655 725.741 565.439V534.904C725.741 530.688 722.323 527.27 718.107 527.27Z" fill="black"/>
<path d="M565.433 679.938H534.898C530.682 679.938 527.264 683.356 527.264 687.572V718.107C527.264 722.323 530.682 725.741 534.898 725.741H565.433C569.649 725.741 573.067 722.323 573.067 718.107V687.572C573.067 683.356 569.649 679.938 565.433 679.938Z" fill="black"/>
<path d="M695.207 298.251H557.799C549.701 298.251 541.934 301.468 536.208 307.194C530.481 312.921 527.264 320.688 527.264 328.786V466.193C527.264 474.292 530.481 482.059 536.208 487.785C541.934 493.511 549.701 496.728 557.799 496.728H695.207C703.305 496.728 711.072 493.511 716.798 487.785C722.525 482.059 725.742 474.292 725.742 466.193V328.786C725.742 320.688 722.525 312.921 716.798 307.194C711.072 301.468 703.305 298.251 695.207 298.251ZM664.672 428.025C664.672 430.049 663.867 431.991 662.436 433.423C661.004 434.854 659.062 435.658 657.038 435.658H595.968C593.943 435.658 592.002 434.854 590.57 433.423C589.138 431.991 588.334 430.049 588.334 428.025V366.955C588.334 364.93 589.138 362.988 590.57 361.557C592.002 360.125 593.943 359.321 595.968 359.321H657.038C659.062 359.321 661.004 360.125 662.436 361.557C663.867 362.988 664.672 364.93 664.672 366.955V428.025Z" fill="black"/>
<path d="M466.193 298.251H328.785C320.687 298.251 312.92 301.468 307.194 307.194C301.468 312.921 298.25 320.688 298.25 328.786V466.193C298.25 474.292 301.468 482.059 307.194 487.785C312.92 493.511 320.687 496.728 328.785 496.728H466.193C474.291 496.728 482.058 493.511 487.784 487.785C493.511 482.059 496.728 474.292 496.728 466.193V328.786C496.728 320.688 493.511 312.921 487.784 307.194C482.058 301.468 474.291 298.251 466.193 298.251ZM435.658 428.025C435.658 430.049 434.854 431.991 433.422 433.423C431.99 434.854 430.049 435.658 428.024 435.658H366.954C364.93 435.658 362.988 434.854 361.556 433.423C360.125 431.991 359.32 430.049 359.32 428.025V366.955C359.32 364.93 360.125 362.988 361.556 361.557C362.988 360.125 364.93 359.321 366.954 359.321H428.024C430.049 359.321 431.99 360.125 433.422 361.557C434.854 362.988 435.658 364.93 435.658 366.955V428.025Z" fill="black"/>
<path d="M466.193 527.27H328.785C320.687 527.27 312.92 530.487 307.194 536.214C301.468 541.94 298.25 549.707 298.25 557.805V695.213C298.25 703.311 301.468 711.078 307.194 716.804C312.92 722.531 320.687 725.748 328.785 725.748H466.193C474.291 725.748 482.058 722.531 487.784 716.804C493.511 711.078 496.728 703.311 496.728 695.213V557.805C496.728 549.707 493.511 541.94 487.784 536.214C482.058 530.487 474.291 527.27 466.193 527.27ZM435.658 657.044C435.658 659.069 434.854 661.01 433.422 662.442C431.99 663.873 430.049 664.678 428.024 664.678H366.954C364.93 664.678 362.988 663.873 361.556 662.442C360.125 661.01 359.32 659.069 359.32 657.044V595.974C359.32 593.949 360.125 592.008 361.556 590.576C362.988 589.145 364.93 588.34 366.954 588.34H428.024C430.049 588.34 431.99 589.145 433.422 590.576C434.854 592.008 435.658 593.949 435.658 595.974V657.044Z" fill="black"/>
</svg>
